<svg xmlns="http://www.w3.org/2000/svg" width="29" height="29" viewBox="0 0 29 29">
  <g id="ic-user-circle" transform="translate(-2.071 -2.071)">
    <path id="Trazado_148267" data-name="Trazado 148267" d="M16.571,2.071a14.5,14.5,0,1,0,14.5,14.5A14.5,14.5,0,0,0,16.571,2.071Zm-6.214,25.25V25.25a3.335,3.335,0,0,1,3.107-3.5h6.214a3.335,3.335,0,0,1,3.107,3.511v2.071a12.346,12.346,0,0,1-12.429,0Zm14.5-1.513v-.632a5.4,5.4,0,0,0-5.179-5.5H13.464a5.386,5.386,0,0,0-5.179,5.5v.611a12.429,12.429,0,1,1,16.571,0Z"/>
    <path id="Trazado_148268" data-name="Trazado 148268" d="M16.571,7.25a5.179,5.179,0,1,0,5.179,5.179A5.179,5.179,0,0,0,16.571,7.25Zm0,8.286a3.107,3.107,0,1,1,3.107-3.107A3.107,3.107,0,0,1,16.571,15.536Z"/>
  </g>
</svg>
